<svg xmlns="http://www.w3.org/2000/svg" viewBox="0 0 48 48">
  <circle cx="24" cy="24" r="20" fill="#0060DF"/>
  <ellipse cx="24" cy="24" rx="7" ry="20" fill="none" stroke="#00B3F4" stroke-width="1.5" opacity="0.5"/>
  <line x1="4" y1="24" x2="44" y2="24" stroke="#00B3F4" stroke-width="1.5" opacity="0.5"/>
  <line x1="8" y1="14" x2="40" y2="14" stroke="#00B3F4" stroke-width="1" opacity="0.4"/>
  <line x1="8" y1="34" x2="40" y2="34" stroke="#00B3F4" stroke-width="1" opacity="0.4"/>
  <path d="M24,4 C18,4 13,7 10,12 C12,10 15,9 18,10 C15,12 13,16 14,20 C15,17 18,15 21,16 C19,18 18,22 20,25 C21,22 24,21 26,23 C25,20 26,17 29,16 C31,19 30,23 28,26 C31,24 34,21 33,17 C36,20 36,25 34,29 C37,26 38,21 37,17 C39,20 39,26 37,30 C39,27 40,23 39,19 C41,22 41,28 38,33 C36,37 32,40 28,41 C26,42 24,42 22,42 C16,42 11,39 8,34 C6,30 6,25 8,21 C9,18 12,16 15,16 C12,15 9,17 8,20 C7,16 8,12 11,9 C14,6 19,4 24,4 Z" fill="#FF9500"/>
  <path d="M24,4 C22,4 20,5 19,6 C21,6 23,7 24,9 C22,8 19,9 18,11 C20,10 22,11 23,13 C21,12 19,13 19,15 C21,14 23,14 24,16 C23,14 24,12 26,12 C25,14 25,17 27,18 C26,15 28,13 30,14 C29,16 29,19 31,20 C31,17 33,15 35,16 C34,18 34,21 36,22 C36,19 38,17 40,18 C39,14 37,11 34,9 C31,6 28,4 24,4 Z" fill="#FF4F00"/>
</svg>
